{
  "accessors": [
    {
      "bufferView": 1,
      "componentType": 5126,
      "count": 8336,
      "max": [
        322.9638977050781,
        42.65626525878906,
        63.803565979003906
      ],
      "min": [
        -322.9638977050781,
        -42.696712493896484,
        -28.585071563720703
      ],
      "type": "VEC3"
    },
    {
      "bufferView": 1,
      "byteOffset": 100032,
      "componentType": 5126,
      "count": 8336,
      "max": [
        1.0,
        1.0,
        1.0
      ],
      "min": [
        -1.0,
        -1.0,
        -1.0
      ],
      "type": "VEC3"
    },
    {
      "bufferView": 1,
      "byteOffset": 200064,
      "componentType": 5126,
      "count": 8336,
      "max": [
        1.0,
        1.0,
        1.0
      ],
      "min": [
        0.250980406999588,
        0.250980406999588,
        0.0
      ],
      "type": "VEC3"
    },
    {
      "bufferView": 0,
      "componentType": 5125,
      "count": 30069,
      "type": "SCALAR"
    },
    {
      "bufferView": 1,
      "byteOffset": 300096,
      "componentType": 5126,
      "count": 8201,
      "max": [
        322.9638977050781,
        42.696285247802734,
        33.862178802490234
      ],
      "min": [
        -322.9638977050781,
        -42.71349334716797,
        -28.582321166992188
      ],
      "type": "VEC3"
    },
    {
      "bufferView": 1,
      "byteOffset": 398508,
      "componentType": 5126,
      "count": 8201,
      "max": [
        0.9999644160270691,
        0.9999999403953552,
        1.0
      ],
      "min": [
        -1.0,
        -1.0,
        -0.9961207509040833
      ],
      "type": "VEC3"
    },
    {
      "bufferView": 1,
      "byteOffset": 496920,
      "componentType": 5126,
      "count": 8201,
      "max": [
        1.0,
        1.0,
        0.9333333373069763
      ],
      "min": [
        0.250980406999588,
        0.250980406999588,
        0.0
      ],
      "type": "VEC3"
    },
    {
      "bufferView": 0,
      "byteOffset": 120276,
      "componentType": 5125,
      "count": 39042,
      "type": "SCALAR"
    },
    {
      "bufferView": 1,
      "byteOffset": 595332,
      "componentType": 5126,
      "count": 8000,
      "max": [
        322.9638977050781,
        42.71344757080078,
        33.862178802490234
      ],
      "min": [
        -276.6064147949219,
        -42.65625762939453,
        -28.583927154541016
      ],
      "type": "VEC3"
    },
    {
      "bufferView": 1,
      "byteOffset": 691332,
      "componentType": 5126,
      "count": 8000,
      "max": [
        1.0,
        1.0,
        1.0
      ],
      "min": [
        -1.0,
        -1.0,
        -1.0
      ],
      "type": "VEC3"
    },
    {
      "bufferView": 1,
      "byteOffset": 787332,
      "componentType": 5126,
      "count": 8000,
      "max": [
        1.0,
        1.0,
        0.9333333373069763
      ],
      "min": [
        0.7921568751335144,
        0.8196078538894653,
        0.0
      ],
      "type": "VEC3"
    },
    {
      "bufferView": 0,
      "byteOffset": 276444,
      "componentType": 5125,
      "count": 40611,
      "type": "SCALAR"
    }
  ],
  "asset": {
    "extras": {
      "author": "Aravindhyokesh (https://sketchfab.com/Aravindhyokesh)",
      "license": "CC-BY-4.0 (http://creativecommons.org/licenses/by/4.0/)",
      "source": "https://sketchfab.com/3d-models/240108-matsya-kcs-hull-4044f71425d0493eaa9b2db0248e9c33",
      "title": "240108_Matsya_kcs_Hull"
    },
    "generator": "Sketchfab-15.55.0",
    "version": "2.0"
  },
  "bufferViews": [
    {
      "buffer": 0,
      "byteLength": 438888,
      "name": "floatBufferViews",
      "target": 34963
    },
    {
      "buffer": 0,
      "byteLength": 883332,
      "byteOffset": 438888,
      "byteStride": 12,
      "name": "floatBufferViews",
      "target": 34962
    }
  ],
  "buffers": [
    {
      "byteLength": 1322220,
      "uri": "scene.bin"
    }
  ],
  "extensionsUsed": [
    "KHR_materials_specular"
  ],
  "materials": [
    {
      "doubleSided": true,
      "extensions": {
        "KHR_materials_specular": {
          "specularColorFactor": [
            1.0,
            1.0,
            1.0
          ],
          "specularFactor": 0.4190488961490168
        }
      },
      "name": "Scene_-_Root",
      "pbrMetallicRoughness": {
        "roughnessFactor": 0.4860967195328595
      }
    }
  ],
  "meshes": [
    {
      "name": "Object_0",
      "primitives": [
        {
          "attributes": {
            "COLOR_0": 2,
            "NORMAL": 1,
            "POSITION": 0
          },
          "indices": 3,
          "material": 0,
          "mode": 4
        }
      ]
    },
    {
      "name": "Object_1",
      "primitives": [
        {
          "attributes": {
            "COLOR_0": 6,
            "NORMAL": 5,
            "POSITION": 4
          },
          "indices": 7,
          "material": 0,
          "mode": 4
        }
      ]
    },
    {
      "name": "Object_2",
      "primitives": [
        {
          "attributes": {
            "COLOR_0": 10,
            "NORMAL": 9,
            "POSITION": 8
          },
          "indices": 11,
          "material": 0,
          "mode": 4
        }
      ]
    }
  ],
  "nodes": [
    {
      "children": [
        1
      ],
      "matrix": [
        1.0,
        -2.8327693431939985e-16,
        -2.8327693431939995e-16,
        0.0,
        -2.832769343193999e-16,
        2.2204460492503136e-16,
        -1.0,
        0.0,
        2.832769343193999e-16,
        1.0,
        2.2204460492503128e-16,
        0.0,
        0.0,
        0.0,
        0.0,
        1.0
      ],
      "name": "Sketchfab_model"
    },
    {
      "children": [
        2,
        3,
        4
      ],
      "name": "Geode"
    },
    {
      "mesh": 0,
      "name": "Object_2"
    },
    {
      "mesh": 1,
      "name": "Object_3"
    },
    {
      "mesh": 2,
      "name": "Object_4"
    }
  ],
  "scene": 0,
  "scenes": [
    {
      "name": "Sketchfab_Scene",
      "nodes": [
        0
      ]
    }
  ]
}
