{
  "accessors": [
    {
      "bufferView": 1,
      "componentType": 5126,
      "count": 1979,
      "max": [
        750.0,
        421.4181213378906,
        156.26634216308594
      ],
      "min": [
        -1067.0643310546875,
        281.99896240234375,
        -156.23365783691406
      ],
      "type": "VEC3"
    },
    {
      "bufferView": 1,
      "byteOffset": 23748,
      "componentType": 5126,
      "count": 1979,
      "max": [
        0.9999999403953552,
        1.0,
        1.0
      ],
      "min": [
        -1.0,
        -1.0,
        -1.0
      ],
      "type": "VEC3"
    },
    {
      "bufferView": 0,
      "componentType": 5125,
      "count": 9996,
      "type": "SCALAR"
    },
    {
      "bufferView": 1,
      "byteOffset": 47496,
      "componentType": 5126,
      "count": 197,
      "max": [
        -306.6570129394531,
        155.9738006591797,
        290.4022521972656
      ],
      "min": [
        -569.1489868164063,
        105.33277130126953,
        289.9705505371094
      ],
      "type": "VEC3"
    },
    {
      "bufferView": 1,
      "byteOffset": 49860,
      "componentType": 5126,
      "count": 197,
      "max": [
        0.0019172803731635213,
        4.378019366413355e-05,
        0.9999995231628418
      ],
      "min": [
        7.413132698275149e-05,
        -0.002047112211585045,
        0.9999966621398926
      ],
      "type": "VEC3"
    },
    {
      "bufferView": 0,
      "byteOffset": 39984,
      "componentType": 5125,
      "count": 576,
      "type": "SCALAR"
    },
    {
      "bufferView": 1,
      "byteOffset": 52224,
      "componentType": 5126,
      "count": 3820,
      "max": [
        -423.7034606933594,
        447.6753234863281,
        65.64141082763672
      ],
      "min": [
        -960.4248657226563,
        412.6753234863281,
        -65.60859680175781
      ],
      "type": "VEC3"
    },
    {
      "bufferView": 1,
      "byteOffset": 98064,
      "componentType": 5126,
      "count": 3820,
      "max": [
        0.9999977946281433,
        1.0,
        1.0
      ],
      "min": [
        -0.9999977350234985,
        -1.0,
        -1.0
      ],
      "type": "VEC3"
    },
    {
      "bufferView": 0,
      "byteOffset": 42288,
      "componentType": 5125,
      "count": 21216,
      "type": "SCALAR"
    },
    {
      "bufferView": 1,
      "byteOffset": 143904,
      "componentType": 5126,
      "count": 1630,
      "max": [
        -317.02642822265625,
        400.76434326171875,
        284.4903259277344
      ],
      "min": [
        -1185.8734130859375,
        275.76434326171875,
        -284.4903259277344
      ],
      "type": "VEC3"
    },
    {
      "bufferView": 1,
      "byteOffset": 163464,
      "componentType": 5126,
      "count": 1630,
      "max": [
        1.0,
        1.0,
        1.0
      ],
      "min": [
        -1.0,
        -1.0,
        -1.0
      ],
      "type": "VEC3"
    },
    {
      "bufferView": 0,
      "byteOffset": 127152,
      "componentType": 5125,
      "count": 7416,
      "type": "SCALAR"
    },
    {
      "bufferView": 1,
      "byteOffset": 183024,
      "componentType": 5126,
      "count": 505,
      "max": [
        1655.0081787109375,
        381.99896240234375,
        289.9978332519531
      ],
      "min": [
        -1634.97900390625,
        279.9989013671875,
        -289.9978332519531
      ],
      "type": "VEC3"
    },
    {
      "bufferView": 1,
      "byteOffset": 189084,
      "componentType": 5126,
      "count": 505,
      "max": [
        1.0,
        1.0,
        1.0
      ],
      "min": [
        -1.0,
        -1.0,
        -1.0
      ],
      "type": "VEC3"
    },
    {
      "bufferView": 0,
      "byteOffset": 156816,
      "componentType": 5125,
      "count": 1356,
      "type": "SCALAR"
    },
    {
      "bufferView": 1,
      "byteOffset": 195144,
      "componentType": 5126,
      "count": 8422,
      "max": [
        1655.011962890625,
        379.99896240234375,
        290.10040283203125
      ],
      "min": [
        -1680.8197021484375,
        -0.00025591999292373657,
        -290.6272888183594
      ],
      "type": "VEC3"
    },
    {
      "bufferView": 1,
      "byteOffset": 296208,
      "componentType": 5126,
      "count": 8422,
      "max": [
        1.0,
        1.0,
        1.0
      ],
      "min": [
        -1.0,
        -1.0,
        -1.0
      ],
      "type": "VEC3"
    },
    {
      "bufferView": 0,
      "byteOffset": 162240,
      "componentType": 5125,
      "count": 45075,
      "type": "SCALAR"
    },
    {
      "bufferView": 1,
      "byteOffset": 397272,
      "componentType": 5126,
      "count": 7366,
      "max": [
        1655.011962890625,
        379.99896240234375,
        290.0420837402344
      ],
      "min": [
        -1679.829833984375,
        -0.0019809301011264324,
        -290.0896301269531
      ],
      "type": "VEC3"
    },
    {
      "bufferView": 1,
      "byteOffset": 485664,
      "componentType": 5126,
      "count": 7366,
      "max": [
        1.0,
        1.0,
        1.0
      ],
      "min": [
        -0.9898427724838257,
        -1.0,
        -0.9999998211860657
      ],
      "type": "VEC3"
    },
    {
      "bufferView": 0,
      "byteOffset": 342540,
      "componentType": 5125,
      "count": 40857,
      "type": "SCALAR"
    },
    {
      "bufferView": 1,
      "byteOffset": 574056,
      "componentType": 5126,
      "count": 7700,
      "max": [
        1655.011962890625,
        379.99896240234375,
        290.6272888183594
      ],
      "min": [
        -1680.8197021484375,
        -0.0019809301011264324,
        -290.0382995605469
      ],
      "type": "VEC3"
    },
    {
      "bufferView": 1,
      "byteOffset": 666456,
      "componentType": 5126,
      "count": 7700,
      "max": [
        1.0,
        1.0,
        1.0
      ],
      "min": [
        -0.9891266822814941,
        -1.0,
        -0.9999999403953552
      ],
      "type": "VEC3"
    },
    {
      "bufferView": 0,
      "byteOffset": 505968,
      "componentType": 5125,
      "count": 41085,
      "type": "SCALAR"
    }
  ],
  "asset": {
    "extras": {
      "author": "Aravindhyokesh (https://sketchfab.com/Aravindhyokesh)",
      "license": "CC-BY-4.0 (http://creativecommons.org/licenses/by/4.0/)",
      "source": "https://sketchfab.com/3d-models/kurma-kvlcc2-39fca142164a4c559a189a72cd5737c1",
      "title": "Kurma_kvlcc2"
    },
    "generator": "Sketchfab-16.95.0",
    "version": "2.0"
  },
  "bufferViews": [
    {
      "buffer": 0,
      "byteLength": 670308,
      "name": "floatBufferViews",
      "target": 34963
    },
    {
      "buffer": 0,
      "byteLength": 758856,
      "byteOffset": 670308,
      "byteStride": 12,
      "name": "floatBufferViews",
      "target": 34962
    }
  ],
  "buffers": [
    {
      "byteLength": 1429164,
      "uri": "scene.bin"
    }
  ],
  "materials": [
    {
      "doubleSided": true,
      "name": "mat0",
      "pbrMetallicRoughness": {
        "baseColorFactor": [
          0.42745,
          0.50196,
          1.0,
          1.0
        ],
        "metallicFactor": 0.0,
        "roughnessFactor": 0.9763564597749206
      }
    },
    {
      "doubleSided": true,
      "name": "mat1",
      "pbrMetallicRoughness": {
        "metallicFactor": 0.0,
        "roughnessFactor": 0.9763564597749206
      }
    },
    {
      "doubleSided": true,
      "name": "mat2",
      "pbrMetallicRoughness": {
        "baseColorFactor": [
          1.0,
          1.0,
          0.0,
          1.0
        ],
        "metallicFactor": 0.0,
        "roughnessFactor": 0.9763564597749206
      }
    },
    {
      "doubleSided": true,
      "name": "mat3",
      "pbrMetallicRoughness": {
        "baseColorFactor": [
          0.25098,
          0.25098,
          0.25098,
          1.0
        ],
        "metallicFactor": 0.0,
        "roughnessFactor": 0.9763564597749206
      }
    },
    {
      "doubleSided": true,
      "name": "mat4",
      "pbrMetallicRoughness": {
        "baseColorFactor": [
          0.79216,
          0.81961,
          0.93333,
          1.0
        ],
        "metallicFactor": 0.0,
        "roughnessFactor": 0.9763564597749206
      }
    },
    {
      "doubleSided": true,
      "name": "mat5",
      "pbrMetallicRoughness": {
        "baseColorFactor": [
          0.75294,
          0.75294,
          0.75294,
          1.0
        ],
        "metallicFactor": 0.0,
        "roughnessFactor": 0.9763564597749206
      }
    }
  ],
  "meshes": [
    {
      "name": "Object_0",
      "primitives": [
        {
          "attributes": {
            "NORMAL": 1,
            "POSITION": 0
          },
          "indices": 2,
          "material": 1,
          "mode": 4
        }
      ]
    },
    {
      "name": "Object_1",
      "primitives": [
        {
          "attributes": {
            "NORMAL": 4,
            "POSITION": 3
          },
          "indices": 5,
          "material": 2,
          "mode": 4
        }
      ]
    },
    {
      "name": "Object_2",
      "primitives": [
        {
          "attributes": {
            "NORMAL": 7,
            "POSITION": 6
          },
          "indices": 8,
          "material": 3,
          "mode": 4
        }
      ]
    },
    {
      "name": "Object_3",
      "primitives": [
        {
          "attributes": {
            "NORMAL": 10,
            "POSITION": 9
          },
          "indices": 11,
          "material": 4,
          "mode": 4
        }
      ]
    },
    {
      "name": "Object_4",
      "primitives": [
        {
          "attributes": {
            "NORMAL": 13,
            "POSITION": 12
          },
          "indices": 14,
          "material": 5,
          "mode": 4
        }
      ]
    },
    {
      "name": "Object_5",
      "primitives": [
        {
          "attributes": {
            "NORMAL": 16,
            "POSITION": 15
          },
          "indices": 17,
          "material": 0,
          "mode": 4
        }
      ]
    },
    {
      "name": "Object_6",
      "primitives": [
        {
          "attributes": {
            "NORMAL": 19,
            "POSITION": 18
          },
          "indices": 20,
          "material": 0,
          "mode": 4
        }
      ]
    },
    {
      "name": "Object_7",
      "primitives": [
        {
          "attributes": {
            "NORMAL": 22,
            "POSITION": 21
          },
          "indices": 23,
          "material": 0,
          "mode": 4
        }
      ]
    }
  ],
  "nodes": [
    {
      "children": [
        1
      ],
      "matrix": [
        1.0,
        0.0,
        0.0,
        0.0,
        0.0,
        2.220446049250313e-16,
        -1.0,
        0.0,
        0.0,
        1.0,
        2.220446049250313e-16,
        0.0,
        0.0,
        0.0,
        0.0,
        1.0
      ],
      "name": "Sketchfab_model"
    },
    {
      "children": [
        2,
        3,
        4,
        5,
        6,
        7,
        8,
        9
      ],
      "name": "Kurma_kvlcc2.obj.cleaner.materialmerger.gles"
    },
    {
      "mesh": 0,
      "name": "Object_2"
    },
    {
      "mesh": 1,
      "name": "Object_3"
    },
    {
      "mesh": 2,
      "name": "Object_4"
    },
    {
      "mesh": 3,
      "name": "Object_5"
    },
    {
      "mesh": 4,
      "name": "Object_6"
    },
    {
      "mesh": 5,
      "name": "Object_7"
    },
    {
      "mesh": 6,
      "name": "Object_8"
    },
    {
      "mesh": 7,
      "name": "Object_9"
    }
  ],
  "scene": 0,
  "scenes": [
    {
      "name": "Sketchfab_Scene",
      "nodes": [
        0
      ]
    }
  ]
}
